# xmcd
#
# Track frame offsets:
#	150
#	17044
#	31715
#	46082
#	60165
#	74473
#	90980
#	107825
#	125787
#	141325
#	156722
#	170790
#	185839
#	202234
#	217827
#	233490
#	249597
#	264388
#	278036
#	294528
#	308458
#	323309
#
# Disc length: 4546 seconds
#
# Revision: 1
# Processed by: cddbd v1.5.2PL0 Copyright (c) Steve Scherf et al.
# Submitted via: EZCDAudioConverter 2.3.5.1
#
DISCID=3a11c016
DTITLE=트롯 베스트 3
DYEAR=2014
DGENRE=Trot
TTITLE0=진미령 - 미운사랑
TTITLE1=최진희 - 사랑은 어떻게 생겼을까
TTITLE2=홍진영 - 내 나이가 어때서
TTITLE3=류기진 - 사랑도 모르면서
TTITLE4=강민 - 해운대 밤거리
TTITLE5=강민주 - 회룡포
TTITLE6=김용임 - 내장산
TTITLE7=한수영 - 사랑인가 봅니다
TTITLE8=김란영 - 멀어지지마
TTITLE9=신유 - 꽃물
TTITLE10=이수진 - 님이 좋아
TTITLE11=소리새 - 바다로 가자
TTITLE12=박구윤 - 두 바퀴
TTITLE13=조은성 - 입술위에 꼭꼭
TTITLE14=정하나 - 여자의 마음
TTITLE15=박우철 - 연모
TTITLE16=유민지 - 아이참
TTITLE17=장태희 - 청춘찬가
TTITLE18=박상철 - 노래방
TTITLE19=선경 - 카사노바
TTITLE20=송주란 - 허상
TTITLE21=김란영 - 이룰 수 없는 사랑
EXTD=
EXTT0=
EXTT1=
EXTT2=
EXTT3=
EXTT4=
EXTT5=
EXTT6=
EXTT7=
EXTT8=
EXTT9=
EXTT10=
EXTT11=
EXTT12=
EXTT13=
EXTT14=
EXTT15=
EXTT16=
EXTT17=
EXTT18=
EXTT19=
EXTT20=
EXTT21=
PLAYORDER=
